<svg xmlns="http://www.w3.org/2000/svg" xmlns:xlink="http://www.w3.org/1999/xlink" width="500" zoomAndPan="magnify" viewBox="0 0 375 374.999991" height="500" preserveAspectRatio="xMidYMid meet" version="1.0"><defs><clipPath id="ceb39404f1"><path d="M 0 0.00390625 L 374.933594 0.00390625 L 374.933594 374.996094 L 0 374.996094 Z M 0 0.00390625 " clip-rule="nonzero"/></clipPath></defs><rect x="-37.5" width="450" fill="#ffffff" y="-37.499999" height="449.999989" fill-opacity="1"/><rect x="-37.5" width="450" fill="#ffffff" y="-37.499999" height="449.999989" fill-opacity="1"/><path fill="#000000" d="M -0.0664062 0 L 374.933594 0 L 374.933594 375 L -0.0664062 375 Z M -0.0664062 0 " fill-opacity="1" fill-rule="nonzero"/><g clip-path="url(#ceb39404f1)"><path stroke-linecap="butt" transform="matrix(0.75, 0, 0, 0.75, -0.0672243, 0.00431829)" fill="none" stroke-linejoin="miter" d="M 0.00109071 -0.000549382 L 500.079249 -0.000549382 L 500.079249 499.989067 L 0.00109071 499.989067 Z M 0.00109071 -0.000549382 " stroke="#000000" stroke-width="20" stroke-opacity="1" stroke-miterlimit="4"/></g><path stroke-linecap="butt" transform="matrix(0.704376, 0.257592, -0.257592, 0.704376, 104.868264, 148.287677)" fill="none" stroke-linejoin="miter" d="M 0.00105847 10.000452 L 241.936875 9.999706 " stroke="#ffffff" stroke-width="20" stroke-opacity="1" stroke-miterlimit="4"/><path stroke-linecap="butt" transform="matrix(0.704376, -0.257592, 0.257592, 0.704376, 99.71641, 210.604923)" fill="none" stroke-linejoin="miter" d="M 0.000908458 9.999979 L 241.936725 10.000724 " stroke="#ffffff" stroke-width="20" stroke-opacity="1" stroke-miterlimit="4"/></svg>