<svg xmlns="http://www.w3.org/2000/svg" xmlns:xlink="http://www.w3.org/1999/xlink" width="500" zoomAndPan="magnify" viewBox="0 0 375 374.999991" height="500" preserveAspectRatio="xMidYMid meet" version="1.0"><defs><clipPath id="f0207910f4"><path d="M 0 0.00390625 L 374.933594 0.00390625 L 374.933594 374.996094 L 0 374.996094 Z M 0 0.00390625 " clip-rule="nonzero"/></clipPath></defs><rect x="-37.5" width="450" fill="#ffffff" y="-37.499999" height="449.999989" fill-opacity="1"/><rect x="-37.5" width="450" fill="#ffffff" y="-37.499999" height="449.999989" fill-opacity="1"/><path fill="#000000" d="M -0.0664062 0 L 374.933594 0 L 374.933594 375 L -0.0664062 375 Z M -0.0664062 0 " fill-opacity="1" fill-rule="nonzero"/><g clip-path="url(#f0207910f4)"><path stroke-linecap="butt" transform="matrix(0.75, 0, 0, 0.75, -0.0672243, 0.00431829)" fill="none" stroke-linejoin="miter" d="M 0.00109071 -0.000549382 L 500.079249 -0.000549382 L 500.079249 499.989067 L 0.00109071 499.989067 Z M 0.00109071 -0.000549382 " stroke="#000000" stroke-width="20" stroke-opacity="1" stroke-miterlimit="4"/></g><path stroke-linecap="butt" transform="matrix(0.75, 0.000000000000000094, -0.000000000000000094, 0.75, 102.292666, 147.829517)" fill="none" stroke-linejoin="miter" d="M 0.000403956 9.998145 L 227.219169 9.998145 " stroke="#ffffff" stroke-width="20" stroke-opacity="1" stroke-miterlimit="4"/><path stroke-linecap="butt" transform="matrix(0.75, 0, 0, 0.75, 102.292666, 210.150632)" fill="none" stroke-linejoin="miter" d="M 0.000403956 10.002283 L 227.219169 10.002283 " stroke="#ffffff" stroke-width="20" stroke-opacity="1" stroke-miterlimit="4"/></svg>