<svg xmlns="http://www.w3.org/2000/svg" xmlns:xlink="http://www.w3.org/1999/xlink" width="500" zoomAndPan="magnify" viewBox="0 0 375 134.249994" height="179" preserveAspectRatio="xMidYMid meet" version="1.0"><defs><g/><clipPath id="43c13927a7"><path d="M 1.042969 0 L 373.957031 0 L 373.957031 132.984375 L 1.042969 132.984375 Z M 1.042969 0 " clip-rule="nonzero"/></clipPath><clipPath id="a51d2e0a02"><path d="M 1.046875 0 L 373.953125 0 L 373.953125 132.757812 L 1.046875 132.757812 Z M 1.046875 0 " clip-rule="nonzero"/></clipPath></defs><g clip-path="url(#43c13927a7)"><path fill="#000000" d="M 1.042969 0 L 374.015625 0 L 374.015625 132.984375 L 1.042969 132.984375 Z M 1.042969 0 " fill-opacity="1" fill-rule="nonzero"/></g><g clip-path="url(#a51d2e0a02)"><path stroke-linecap="butt" transform="matrix(0.745833, 0, 0, 0.745833, 1.046023, -0.00000198889)" fill="none" stroke-linejoin="miter" d="M 0.00114216 0.00000266667 L 499.987217 0.00000266667 L 499.987217 178.297853 L 0.00114216 178.297853 Z M 0.00114216 0.00000266667 " stroke="#000000" stroke-width="22" stroke-opacity="1" stroke-miterlimit="4"/></g><g fill="#ffffff" fill-opacity="1"><g transform="translate(25.513076, 78.402585)"><g><path d="M 2.703125 -7.5 L 2.703125 -11.875 L 16.359375 -19.1875 L 16.359375 -14.796875 L 6.921875 -9.8125 L 6.921875 -9.5625 L 16.359375 -4.578125 L 16.359375 -0.1875 Z M 2.703125 -7.5 "/></g></g></g><g fill="#ffffff" fill-opacity="1"><g transform="translate(44.570205, 78.402585)"><g><path d="M 13.8125 0 L 12.421875 -5.34375 L 6.359375 -5.34375 L 4.984375 0 L 0.15625 0 L 6.15625 -22.171875 L 12.890625 -22.171875 L 18.90625 0 Z M 9.53125 -17.5625 L 9.28125 -17.5625 L 7.109375 -9.1875 L 11.6875 -9.1875 Z M 9.53125 -17.5625 "/></g></g></g><g fill="#ffffff" fill-opacity="1"><g transform="translate(63.627334, 78.402585)"><g><path d="M 2.0625 0 L 2.0625 -16.390625 L 6.765625 -16.390625 L 6.765625 -13.40625 L 6.953125 -13.40625 C 7.148438 -13.875 7.382812 -14.304688 7.65625 -14.703125 C 7.925781 -15.109375 8.257812 -15.460938 8.65625 -15.765625 C 9.050781 -16.078125 9.503906 -16.320312 10.015625 -16.5 C 10.535156 -16.675781 11.125 -16.765625 11.78125 -16.765625 C 12.5625 -16.765625 13.28125 -16.632812 13.9375 -16.375 C 14.601562 -16.113281 15.164062 -15.71875 15.625 -15.1875 C 16.09375 -14.65625 16.457031 -14.007812 16.71875 -13.25 C 16.988281 -12.488281 17.125 -11.609375 17.125 -10.609375 L 17.125 0 L 12.421875 0 L 12.421875 -9.96875 C 12.421875 -12.09375 11.5 -13.15625 9.65625 -13.15625 C 9.289062 -13.15625 8.929688 -13.101562 8.578125 -13 C 8.234375 -12.90625 7.925781 -12.757812 7.65625 -12.5625 C 7.382812 -12.363281 7.164062 -12.113281 7 -11.8125 C 6.84375 -11.519531 6.765625 -11.171875 6.765625 -10.765625 L 6.765625 0 Z M 2.0625 0 "/></g></g></g><g fill="#ffffff" fill-opacity="1"><g transform="translate(82.684463, 78.402585)"><g><path d="M 10.796875 0 C 9.109375 0 7.847656 -0.441406 7.015625 -1.328125 C 6.191406 -2.222656 5.78125 -3.359375 5.78125 -4.734375 L 5.78125 -12.734375 L 1.328125 -12.734375 L 1.328125 -16.390625 L 4.21875 -16.390625 C 4.914062 -16.390625 5.410156 -16.523438 5.703125 -16.796875 C 6.003906 -17.078125 6.15625 -17.585938 6.15625 -18.328125 L 6.15625 -22.171875 L 10.484375 -22.171875 L 10.484375 -16.390625 L 16.875 -16.390625 L 16.875 -12.734375 L 10.484375 -12.734375 L 10.484375 -3.65625 L 16.875 -3.65625 L 16.875 0 Z M 10.796875 0 "/></g></g></g><g fill="#ffffff" fill-opacity="1"><g transform="translate(101.741592, 78.402585)"><g><path d="M 9.53125 0.375 C 8.257812 0.375 7.113281 0.179688 6.09375 -0.203125 C 5.082031 -0.597656 4.222656 -1.164062 3.515625 -1.90625 C 2.804688 -2.644531 2.257812 -3.539062 1.875 -4.59375 C 1.488281 -5.65625 1.296875 -6.859375 1.296875 -8.203125 C 1.296875 -9.535156 1.488281 -10.726562 1.875 -11.78125 C 2.257812 -12.84375 2.804688 -13.742188 3.515625 -14.484375 C 4.222656 -15.222656 5.082031 -15.785156 6.09375 -16.171875 C 7.113281 -16.566406 8.257812 -16.765625 9.53125 -16.765625 C 10.800781 -16.765625 11.941406 -16.566406 12.953125 -16.171875 C 13.972656 -15.785156 14.835938 -15.222656 15.546875 -14.484375 C 16.253906 -13.742188 16.796875 -12.84375 17.171875 -11.78125 C 17.554688 -10.726562 17.75 -9.535156 17.75 -8.203125 C 17.75 -6.859375 17.554688 -5.65625 17.171875 -4.59375 C 16.796875 -3.539062 16.253906 -2.644531 15.546875 -1.90625 C 14.835938 -1.164062 13.972656 -0.597656 12.953125 -0.203125 C 11.941406 0.179688 10.800781 0.375 9.53125 0.375 Z M 9.53125 -3.109375 C 10.59375 -3.109375 11.414062 -3.4375 12 -4.09375 C 12.59375 -4.75 12.890625 -5.679688 12.890625 -6.890625 L 12.890625 -9.5 C 12.890625 -10.707031 12.59375 -11.640625 12 -12.296875 C 11.414062 -12.953125 10.59375 -13.28125 9.53125 -13.28125 C 8.46875 -13.28125 7.640625 -12.953125 7.046875 -12.296875 C 6.453125 -11.640625 6.15625 -10.707031 6.15625 -9.5 L 6.15625 -6.890625 C 6.15625 -5.679688 6.453125 -4.75 7.046875 -4.09375 C 7.640625 -3.4375 8.46875 -3.109375 9.53125 -3.109375 Z M 9.53125 -3.109375 "/></g></g></g><g fill="#ffffff" fill-opacity="1"><g transform="translate(120.798721, 78.402585)"><g><path d="M 10.546875 -18.484375 C 9.484375 -18.484375 8.742188 -18.703125 8.328125 -19.140625 C 7.921875 -19.578125 7.71875 -20.101562 7.71875 -20.71875 L 7.71875 -21.625 C 7.71875 -22.257812 7.921875 -22.789062 8.328125 -23.21875 C 8.742188 -23.644531 9.484375 -23.859375 10.546875 -23.859375 C 11.609375 -23.859375 12.34375 -23.644531 12.75 -23.21875 C 13.164062 -22.789062 13.375 -22.257812 13.375 -21.625 L 13.375 -20.71875 C 13.375 -20.101562 13.164062 -19.578125 12.75 -19.140625 C 12.34375 -18.703125 11.609375 -18.484375 10.546875 -18.484375 Z M 2.984375 -3.65625 L 8.203125 -3.65625 L 8.203125 -12.734375 L 2.984375 -12.734375 L 2.984375 -16.390625 L 12.890625 -16.390625 L 12.890625 -3.65625 L 17.71875 -3.65625 L 17.71875 0 L 2.984375 0 Z M 2.984375 -3.65625 "/></g></g></g><g fill="#ffffff" fill-opacity="1"><g transform="translate(139.85585, 78.402585)"><g><path d="M 2.0625 0 L 2.0625 -16.390625 L 6.765625 -16.390625 L 6.765625 -13.40625 L 6.953125 -13.40625 C 7.148438 -13.875 7.382812 -14.304688 7.65625 -14.703125 C 7.925781 -15.109375 8.257812 -15.460938 8.65625 -15.765625 C 9.050781 -16.078125 9.503906 -16.320312 10.015625 -16.5 C 10.535156 -16.675781 11.125 -16.765625 11.78125 -16.765625 C 12.5625 -16.765625 13.28125 -16.632812 13.9375 -16.375 C 14.601562 -16.113281 15.164062 -15.71875 15.625 -15.1875 C 16.09375 -14.65625 16.457031 -14.007812 16.71875 -13.25 C 16.988281 -12.488281 17.125 -11.609375 17.125 -10.609375 L 17.125 0 L 12.421875 0 L 12.421875 -9.96875 C 12.421875 -12.09375 11.5 -13.15625 9.65625 -13.15625 C 9.289062 -13.15625 8.929688 -13.101562 8.578125 -13 C 8.234375 -12.90625 7.925781 -12.757812 7.65625 -12.5625 C 7.382812 -12.363281 7.164062 -12.113281 7 -11.8125 C 6.84375 -11.519531 6.765625 -11.171875 6.765625 -10.765625 L 6.765625 0 Z M 2.0625 0 "/></g></g></g><g fill="#ffffff" fill-opacity="1"><g transform="translate(158.912972, 78.402585)"><g><path d="M 9.96875 0.375 C 7.21875 0.375 5.132812 -0.382812 3.71875 -1.90625 C 2.300781 -3.425781 1.59375 -5.5 1.59375 -8.125 C 1.59375 -9.46875 1.773438 -10.671875 2.140625 -11.734375 C 2.515625 -12.804688 3.046875 -13.71875 3.734375 -14.46875 C 4.421875 -15.21875 5.253906 -15.785156 6.234375 -16.171875 C 7.222656 -16.566406 8.332031 -16.765625 9.5625 -16.765625 C 10.789062 -16.765625 11.890625 -16.566406 12.859375 -16.171875 C 13.835938 -15.785156 14.664062 -15.234375 15.34375 -14.515625 C 16.019531 -13.796875 16.539062 -12.921875 16.90625 -11.890625 C 17.28125 -10.867188 17.46875 -9.722656 17.46875 -8.453125 L 17.46875 -7.046875 L 6.265625 -7.046875 L 6.265625 -6.765625 C 6.265625 -5.703125 6.59375 -4.847656 7.25 -4.203125 C 7.90625 -3.554688 8.867188 -3.234375 10.140625 -3.234375 C 11.109375 -3.234375 11.941406 -3.421875 12.640625 -3.796875 C 13.335938 -4.171875 13.941406 -4.660156 14.453125 -5.265625 L 17 -2.515625 C 16.363281 -1.722656 15.472656 -1.039062 14.328125 -0.46875 C 13.179688 0.09375 11.726562 0.375 9.96875 0.375 Z M 9.59375 -13.40625 C 8.570312 -13.40625 7.757812 -13.09375 7.15625 -12.46875 C 6.5625 -11.84375 6.265625 -11 6.265625 -9.9375 L 6.265625 -9.6875 L 12.859375 -9.6875 L 12.859375 -9.9375 C 12.859375 -11.019531 12.566406 -11.867188 11.984375 -12.484375 C 11.410156 -13.097656 10.613281 -13.40625 9.59375 -13.40625 Z M 9.59375 -13.40625 "/></g></g></g><g fill="#ffffff" fill-opacity="1"><g transform="translate(177.970108, 78.402585)"><g><path d="M 2.3125 4.390625 L 12.515625 -24.140625 L 16.734375 -24.140625 L 6.546875 4.390625 Z M 2.3125 4.390625 "/></g></g></g><g fill="#ffffff" fill-opacity="1"><g transform="translate(197.027244, 78.402585)"><g><path d="M 16.234375 -22.171875 L 16.234375 -6.1875 C 16.234375 -5.195312 16.054688 -4.289062 15.703125 -3.46875 C 15.359375 -2.65625 14.863281 -1.960938 14.21875 -1.390625 C 13.570312 -0.828125 12.789062 -0.390625 11.875 -0.078125 C 10.96875 0.222656 9.953125 0.375 8.828125 0.375 C 6.566406 0.375 4.816406 -0.1875 3.578125 -1.3125 C 2.335938 -2.445312 1.546875 -3.9375 1.203125 -5.78125 L 5.71875 -6.703125 C 5.882812 -5.742188 6.207031 -4.96875 6.6875 -4.375 C 7.164062 -3.789062 7.878906 -3.5 8.828125 -3.5 C 9.628906 -3.5 10.257812 -3.753906 10.71875 -4.265625 C 11.175781 -4.785156 11.40625 -5.585938 11.40625 -6.671875 L 11.40625 -18.265625 L 4.09375 -18.265625 L 4.09375 -22.171875 Z M 16.234375 -22.171875 "/></g></g></g><g fill="#ffffff" fill-opacity="1"><g transform="translate(216.08438, 78.402585)"><g><path d="M 9.53125 0.375 C 8.257812 0.375 7.113281 0.179688 6.09375 -0.203125 C 5.082031 -0.597656 4.222656 -1.164062 3.515625 -1.90625 C 2.804688 -2.644531 2.257812 -3.539062 1.875 -4.59375 C 1.488281 -5.65625 1.296875 -6.859375 1.296875 -8.203125 C 1.296875 -9.535156 1.488281 -10.726562 1.875 -11.78125 C 2.257812 -12.84375 2.804688 -13.742188 3.515625 -14.484375 C 4.222656 -15.222656 5.082031 -15.785156 6.09375 -16.171875 C 7.113281 -16.566406 8.257812 -16.765625 9.53125 -16.765625 C 10.800781 -16.765625 11.941406 -16.566406 12.953125 -16.171875 C 13.972656 -15.785156 14.835938 -15.222656 15.546875 -14.484375 C 16.253906 -13.742188 16.796875 -12.84375 17.171875 -11.78125 C 17.554688 -10.726562 17.75 -9.535156 17.75 -8.203125 C 17.75 -6.859375 17.554688 -5.65625 17.171875 -4.59375 C 16.796875 -3.539062 16.253906 -2.644531 15.546875 -1.90625 C 14.835938 -1.164062 13.972656 -0.597656 12.953125 -0.203125 C 11.941406 0.179688 10.800781 0.375 9.53125 0.375 Z M 9.53125 -3.109375 C 10.59375 -3.109375 11.414062 -3.4375 12 -4.09375 C 12.59375 -4.75 12.890625 -5.679688 12.890625 -6.890625 L 12.890625 -9.5 C 12.890625 -10.707031 12.59375 -11.640625 12 -12.296875 C 11.414062 -12.953125 10.59375 -13.28125 9.53125 -13.28125 C 8.46875 -13.28125 7.640625 -12.953125 7.046875 -12.296875 C 6.453125 -11.640625 6.15625 -10.707031 6.15625 -9.5 L 6.15625 -6.890625 C 6.15625 -5.679688 6.453125 -4.75 7.046875 -4.09375 C 7.640625 -3.4375 8.46875 -3.109375 9.53125 -3.109375 Z M 9.53125 -3.109375 "/></g></g></g><g fill="#ffffff" fill-opacity="1"><g transform="translate(235.141516, 78.402585)"><g><path d="M 2.15625 -3.65625 L 7.171875 -3.65625 L 7.171875 -19.859375 L 2.15625 -19.859375 L 2.15625 -23.5 L 11.875 -23.5 L 11.875 -3.65625 L 16.90625 -3.65625 L 16.90625 0 L 2.15625 0 Z M 2.15625 -3.65625 "/></g></g></g><g fill="#ffffff" fill-opacity="1"><g transform="translate(254.198652, 78.402585)"><g><path d="M 10.546875 -18.484375 C 9.484375 -18.484375 8.742188 -18.703125 8.328125 -19.140625 C 7.921875 -19.578125 7.71875 -20.101562 7.71875 -20.71875 L 7.71875 -21.625 C 7.71875 -22.257812 7.921875 -22.789062 8.328125 -23.21875 C 8.742188 -23.644531 9.484375 -23.859375 10.546875 -23.859375 C 11.609375 -23.859375 12.34375 -23.644531 12.75 -23.21875 C 13.164062 -22.789062 13.375 -22.257812 13.375 -21.625 L 13.375 -20.71875 C 13.375 -20.101562 13.164062 -19.578125 12.75 -19.140625 C 12.34375 -18.703125 11.609375 -18.484375 10.546875 -18.484375 Z M 2.984375 -3.65625 L 8.203125 -3.65625 L 8.203125 -12.734375 L 2.984375 -12.734375 L 2.984375 -16.390625 L 12.890625 -16.390625 L 12.890625 -3.65625 L 17.71875 -3.65625 L 17.71875 0 L 2.984375 0 Z M 2.984375 -3.65625 "/></g></g></g><g fill="#ffffff" fill-opacity="1"><g transform="translate(273.255788, 78.402585)"><g><path d="M 6.734375 0 L 0.859375 -16.390625 L 5.8125 -16.390625 L 7.9375 -9.375 L 9.5 -3.90625 L 9.75 -3.90625 L 11.3125 -9.375 L 13.4375 -16.390625 L 18.203125 -16.390625 L 12.328125 0 Z M 6.734375 0 "/></g></g></g><g fill="#ffffff" fill-opacity="1"><g transform="translate(292.312925, 78.402585)"><g><path d="M 9.96875 0.375 C 7.21875 0.375 5.132812 -0.382812 3.71875 -1.90625 C 2.300781 -3.425781 1.59375 -5.5 1.59375 -8.125 C 1.59375 -9.46875 1.773438 -10.671875 2.140625 -11.734375 C 2.515625 -12.804688 3.046875 -13.71875 3.734375 -14.46875 C 4.421875 -15.21875 5.253906 -15.785156 6.234375 -16.171875 C 7.222656 -16.566406 8.332031 -16.765625 9.5625 -16.765625 C 10.789062 -16.765625 11.890625 -16.566406 12.859375 -16.171875 C 13.835938 -15.785156 14.664062 -15.234375 15.34375 -14.515625 C 16.019531 -13.796875 16.539062 -12.921875 16.90625 -11.890625 C 17.28125 -10.867188 17.46875 -9.722656 17.46875 -8.453125 L 17.46875 -7.046875 L 6.265625 -7.046875 L 6.265625 -6.765625 C 6.265625 -5.703125 6.59375 -4.847656 7.25 -4.203125 C 7.90625 -3.554688 8.867188 -3.234375 10.140625 -3.234375 C 11.109375 -3.234375 11.941406 -3.421875 12.640625 -3.796875 C 13.335938 -4.171875 13.941406 -4.660156 14.453125 -5.265625 L 17 -2.515625 C 16.363281 -1.722656 15.472656 -1.039062 14.328125 -0.46875 C 13.179688 0.09375 11.726562 0.375 9.96875 0.375 Z M 9.59375 -13.40625 C 8.570312 -13.40625 7.757812 -13.09375 7.15625 -12.46875 C 6.5625 -11.84375 6.265625 -11 6.265625 -9.9375 L 6.265625 -9.6875 L 12.859375 -9.6875 L 12.859375 -9.9375 C 12.859375 -11.019531 12.566406 -11.867188 11.984375 -12.484375 C 11.410156 -13.097656 10.613281 -13.40625 9.59375 -13.40625 Z M 9.59375 -13.40625 "/></g></g></g><g fill="#ffffff" fill-opacity="1"><g transform="translate(311.370061, 78.402585)"><g><path d="M 10.796875 0 C 9.109375 0 7.847656 -0.441406 7.015625 -1.328125 C 6.191406 -2.222656 5.78125 -3.359375 5.78125 -4.734375 L 5.78125 -12.734375 L 1.328125 -12.734375 L 1.328125 -16.390625 L 4.21875 -16.390625 C 4.914062 -16.390625 5.410156 -16.523438 5.703125 -16.796875 C 6.003906 -17.078125 6.15625 -17.585938 6.15625 -18.328125 L 6.15625 -22.171875 L 10.484375 -22.171875 L 10.484375 -16.390625 L 16.875 -16.390625 L 16.875 -12.734375 L 10.484375 -12.734375 L 10.484375 -3.65625 L 16.875 -3.65625 L 16.875 0 Z M 10.796875 0 "/></g></g></g><g fill="#ffffff" fill-opacity="1"><g transform="translate(330.427197, 78.402585)"><g><path d="M 2.703125 -4.578125 L 12.140625 -9.5625 L 12.140625 -9.8125 L 2.703125 -14.796875 L 2.703125 -19.1875 L 16.359375 -11.875 L 16.359375 -7.5 L 2.703125 -0.1875 Z M 2.703125 -4.578125 "/></g></g></g></svg>